# xmcd
#
# Track frame offsets:
#	150
#	11815
#	25652
#	35557
#	48935
#	61125
#	73237
#	86295
#	99767
#	115782
#	133110
#	149600
#
# Disc length: 2238 seconds
#
# Revision: 0
# Processed by: cddbd v1.5.2PL0 Copyright (c) Steve Scherf et al.
# Submitted via: EasyCDDAExtractor 9.1.3.1
#
DISCID=9d08bc0c
DTITLE=Ray Charles - Friendship
DYEAR=2005
DGENRE=Country
TTITLE0=Two Old Cats Like Us (Hank Williams, Jr.)
TTITLE1=This Old Heart (Is Gonna Rise Again) (The Oak Ridge Boys)
TTITLE2=We Didn't See A Thing ( Chet Atkins and George Jones)
TTITLE3=Who Cares (Janie Fricke)
TTITLE4=Rock And Roll Shoes (B.J. Thomas)
TTITLE5=Friendship (Ricky Scaggs)
TTITLE6=It Ain't Gonna Worry My Mind (Mickey Gilley)
TTITLE7=Little Hotel Room (Merle Haggard)
TTITLE8=Crazy Old Soldier (Johnny Cash)
TTITLE9=Seven Spanish Angels (Willie Nelson)
TTITLE10=Everybody Has The Blues (Tony Bennett)
TTITLE11=Baby Grand (Billy Joel)
EXTD=YEAR: 2005 ID3G: 42\n
EXTT0=
EXTT1=
EXTT2=
EXTT3=
EXTT4=
EXTT5=
EXTT6=
EXTT7=
EXTT8=
EXTT9=
EXTT10=
EXTT11=
PLAYORDER=
